<?xml version="1.0" encoding="utf-8"?>
<!-- Generator: Adobe Illustrator 22.0.1, SVG Export Plug-In . SVG Version: 6.00 Build 0)  -->
<svg version="1.1" id="Layer_1" xmlns="http://www.w3.org/2000/svg" xmlns:xlink="http://www.w3.org/1999/xlink" x="0px" y="0px"
	 viewBox="0 0 576 176.1" style="enable-background:new 0 0 576 176.1;" xml:space="preserve">
<style type="text/css">
	.st0{fill:#1A428A;}
	.st1{fill:#FFFFFF;}
	.st2{fill:#CE0E2D;}
</style>
<g>
	<g>
		<path class="st1" d="M565.7,135.6c0.5-4.2,0.7-7,0.7-10.6c0-13.8-5.9-24.4-14.6-41.3c-8.2-15.7-11.7-24.6-11.7-35.4
			c0-3.5,0.2-6.3,0.5-8.7l0.2-2.1c0.9-9.2,3.1-13.4,8-13.4c3.5,0,5.2,2.6,5.2,7.3c0,2.3-0.2,4.7-0.7,9.6l-2.1,20.2h22.1l1.9-17.4
			c0.5-5.2,0.9-10.1,0.9-14.1C576,12.9,568,3,550.4,3c-18.3,0-29.3,11.3-31.9,35l-0.5,4.2c-0.2,2.1-0.5,4.9-0.5,8.7
			c0,14.1,4.5,28.4,12.9,44.6c9.6,18.3,12.9,23.2,12.9,34.3c0,2.1-0.2,4-0.5,6.1l-0.5,4.5c-0.9,8.2-2.3,12-7.3,12
			c-3.8,0-5.9-2.6-5.9-7.3c0-3.1,0.2-5.2,0.5-7.7l2.3-20.2h-22.5l-2.1,17.1c-0.5,3.3-0.9,8.7-0.9,12.7c0,16.2,9.6,26.5,28.2,26.5
			c18.8,0,27.7-11.3,30.3-31.9L565.7,135.6z"/>
	</g>
	<polygon class="st1" points="507.6,95.5 509.5,77.2 491.4,77.2 496.8,25.5 517,25.5 519.1,4.4 476.4,4.4 458.8,172 481.3,172 
		489.3,95.5 	"/>
	<polygon class="st1" points="455.4,95.5 457.3,77.2 439.2,77.2 444.6,25.5 464.8,25.5 466.9,4.4 424.2,4.4 406.6,172 429.1,172 
		437.1,95.5 	"/>
	<g>
		<path class="st1" d="M386.9,35.4l-11,105.8c-0.9,8.2-2.6,11-7,11c-5.2,0-6.8-2.8-5.9-11.3l11-105.8c0.9-8.2,2.6-11,7.3-11
			C385.9,24.1,387.8,27,386.9,35.4 M382.2,3c-17.8,0-28.2,8.4-30.7,32.9l-11,102.3c-2.6,23.7,6.8,35.2,27.7,35.2
			c18.3,0,27.7-8.4,30.3-32.9l11-102.3C412,14.5,402.8,3,382.2,3"/>
	</g>
	<polygon class="st1" points="349.7,4.4 326.7,4.4 309.4,93.6 309.8,4.4 286.1,4.4 293.6,126 288.7,172 311.2,172 315.9,128.3 	"/>
	<g>
		<path class="st1" d="M252.7,90.8l-1.2,27.2H240l4.5-27.2c1.9-11.7,8.2-53,11.5-73.5C255.3,37.5,253.4,78.1,252.7,90.8 M241.9,4.4
			L208.1,172h23.2l5.4-33.1h13.8l-1.4,33.1h23.9l1.6-167.6H241.9z"/>
	</g>
	<polygon class="st1" points="205.3,150.9 186.7,150.9 202.2,4.4 179.7,4.4 162.1,172 203.2,172 	"/>
	<path class="st1" d="M142.8,37.5l-5.4,52.3c-0.9,8.2-2.6,12.2-10.3,12.2h-4l8-76.5h2.8C141.6,25.5,143.7,29.3,142.8,37.5
		 M136.9,4.4h-26L93.2,172h22.5l5.2-49.8h5.4c19.5,0,31-9.6,33.6-33.1l5.4-49.7C167.9,16.2,158.5,4.4,136.9,4.4"/>
	<path class="st1" d="M59.4,0H18.2C8.2,0,0,8.2,0,18.2v139.6c0,10.1,8.2,18.2,18.2,18.2h41.2c10.1,0,18.3-8.2,18.3-18.2V18.2
		C77.7,8.2,69.5,0,59.4,0"/>
	<path class="st0" d="M57.7,155.1c-2.2-2-0.7-2.8-0.8-3.6c-1.5-6.1-6.3-9.8-3.8-11.8c-0.6-2-1.9-4.5-1.8-4.5
		c-7.5-4.3-14-11.4-15.1-12.4c-1.3-1.4-3.6-2.9-4-4.1c-1.8-1.7-10.7-14.3-12.8-18.9l-3.6-0.5c-1.6-6.7-7.1-12.3-7.3-19.1
		c-0.1-2.5,1.2-8,1.6-9.1c0.4-1.1,2.5-2.9,2.5-2.9v-1.8c-7.9,0.2-5.6-0.6-7-3.6c-1-2.1-0.3-2.6,0.1-4.1c1.1-4.3,4.6-11,6-14.1
		c0.4-1.5,2-5.2,2-5.2c5.9-12,8.1-11.1,15-11.7l0.3-0.5c7-0.3,5.8-0.8,6.8-7.6c-1,0.4-1.3-2.1-1.3-2.1c-0.6-3.8,1.1-3.1,1.8-3.2
		c0.2-6.3,0.8-8.3,5.4-10H18.2c-7.7,0-13.9,6.2-13.9,13.9v139.6c0,7.7,6.2,13.9,13.9,13.9h41.2C54.7,169.2,57.5,164.4,57.7,155.1"/>
	<path class="st2" d="M49.2,32.3l0,0.6c1.3,0.7,1.9,1.3,3.2,2.1c3.4,2.1,7.5,5.9,7,18.8c0.9,2.8,1.4,8.4,2.2,10.2
		c1.8,3.5,2.9,5.7,3.4,9c0,0,0.5,5.1,1.2,5.5c3.5,0.8,2.5,1.1,3,1.7c0.5,0.7,2.5,0.7,2.5,2.5c0.7,0.9,1.2,1.9,1.6,2.9V18.2
		c0-7.7-6.3-13.9-13.9-13.9H46.1c2.1,0.8,3.3,1.7,4.1,3.1c1.7,0.1,3.8,4,0.6,9.7c1.4,0.9,0.3,2.3-0.7,4c-0.3,0.5-0.6,1.5-1.6,1.4
		c-1.2,2.5-2.7,5-3.8,5.2c-0.3,0.4-0.6,1.5-0.1,2C46.3,30.4,48.2,31.3,49.2,32.3"/>
	<path class="st2" d="M73.4,94.8c-1.8,4.6-6.3,7.8-11.6,7.8c-6.9,0-12.4-5.6-12.4-12.4c0-5.9,4-10.8,9.5-12.1
		c-1.4-3.6-4.5-9.4-5.4-11.3c-0.9-1.9-2.9-13.7-3.3-16c-0.1-0.5-5.4,3.1-5.4,3.3c-0.3,0.3-3.9,9.8-4.1,10.3
		c-0.1,0.3-0.1,1.6-0.1,1.6s1.8,0.2,2.8,3.3c1,3.1,4.1,14.5,4.1,14.5s-0.8,0.9-0.9,0.8c3.9,13.1,2.6,18.8,4.3,22.6
		c2.2,5.4,2.8,4.7,4.7,9.3c1.4,3.3,2.9,16.4,3.4,17c2.1,2.7,3.3,4.8,3.3,6.3c0,1.5-1.8,6-1.1,8.7c0.4,1.5,0.6,5,1.3,5.7
		c0,0,0.7,1.3,0.3,1.9c-0.1,0.2-0.3,0.5-0.2,0.7c1.2,4.1,4.9,11.2-1.2,14.8h0.1c6.7-1,11.7-6.7,11.7-13.8V94.8z"/>
	<path class="st1" d="M16,163h-2.9v-25.3h4.7l3.7,20.7c-0.3-5-0.7-10.9-0.7-16v-4.7h2.9V163h-4.3l-3.7-20.2
		c0.2,4.7,0.3,8.4,0.3,12.3V163z M41.9,140.5h-0.2c-0.2,3-0.6,8.4-0.8,10.1l-0.4,4.4h2.6l-0.4-4.4C42.7,148.9,42.2,143.6,41.9,140.5
		 M43.4,157.9h-3L40,163h-3.4l3-25.3h4.8l2.9,25.3h-3.5L43.4,157.9z M29.4,140.9v8.4h1.3c1.2,0,1.5-0.4,1.5-1.8v-4.8
		c0-1.2-0.4-1.7-1.5-1.7H29.4z M29.4,152v7.8h1.3c1.2,0,1.5-0.6,1.5-1.8v-4.3c0-1.2-0.4-1.7-1.5-1.7H29.4z M26,163v-25.3h4.9
		c2.8,0,4.6,1.5,4.6,5.1v3.8c0,2.3-0.7,3.5-1.7,4c1,0.7,1.7,1.8,1.7,3.7v3.7c0,3.5-1.9,5-4.6,5H26z"/>
</g>
</svg>
