<svg version="1.1" id="Layer_1" xmlns="http://www.w3.org/2000/svg" x="0" y="0" viewBox="0 0 576 176.1" xml:space="preserve"><style>.st1{fill:#fff}</style><path class="st1" d="M565.7 135.6c.5-4.2.7-7 .7-10.6 0-13.8-5.9-24.4-14.6-41.3-8.2-15.7-11.7-24.6-11.7-35.4 0-3.5.2-6.3.5-8.7l.2-2.1c.9-9.2 3.1-13.4 8-13.4 3.5 0 5.2 2.6 5.2 7.3 0 2.3-.2 4.7-.7 9.6l-2.1 20.2h22.1l1.9-17.4c.5-5.2.9-10.1.9-14.1C576 12.9 568 3 550.4 3c-18.3 0-29.3 11.3-31.9 35l-.5 4.2c-.2 2.1-.5 4.9-.5 8.7 0 14.1 4.5 28.4 12.9 44.6 9.6 18.3 12.9 23.2 12.9 34.3 0 2.1-.2 4-.5 6.1l-.5 4.5c-.9 8.2-2.3 12-7.3 12-3.8 0-5.9-2.6-5.9-7.3 0-3.1.2-5.2.5-7.7l2.3-20.2h-22.5l-2.1 17.1c-.5 3.3-.9 8.7-.9 12.7 0 16.2 9.6 26.5 28.2 26.5 18.8 0 27.7-11.3 30.3-31.9l.8-6zm-58.1-40.1l1.9-18.3h-18.1l5.4-51.7H517l2.1-21.1h-42.7L458.8 172h22.5l8-76.5zm-52.2 0l1.9-18.3h-18.1l5.4-51.7h20.2l2.1-21.1h-42.7L406.6 172h22.5l8-76.5zm-68.5-60.1l-11 105.8c-.9 8.2-2.6 11-7 11-5.2 0-6.8-2.8-5.9-11.3l11-105.8c.9-8.2 2.6-11 7.3-11 4.6 0 6.5 2.9 5.6 11.3M382.2 3c-17.8 0-28.2 8.4-30.7 32.9l-11 102.3c-2.6 23.7 6.8 35.2 27.7 35.2 18.3 0 27.7-8.4 30.3-32.9l11-102.3C412 14.5 402.8 3 382.2 3m-32.5 1.4h-23l-17.3 89.2.4-89.2h-23.7l7.5 121.6-4.9 46h22.5l4.7-43.7zm-97 86.4l-1.2 27.2H240l4.5-27.2c1.9-11.7 8.2-53 11.5-73.5-.7 20.2-2.6 60.8-3.3 73.5M241.9 4.4L208.1 172h23.2l5.4-33.1h13.8l-1.4 33.1H273l1.6-167.6h-32.7zm-36.6 146.5h-18.6L202.2 4.4h-22.5L162.1 172h41.1zM142.8 37.5l-5.4 52.3c-.9 8.2-2.6 12.2-10.3 12.2h-4l8-76.5h2.8c7.7 0 9.8 3.8 8.9 12m-5.9-33.1h-26L93.2 172h22.5l5.2-49.8h5.4c19.5 0 31-9.6 33.6-33.1l5.4-49.7c2.6-23.2-6.8-35-28.4-35M59.4 0H18.2C8.2 0 0 8.2 0 18.2v139.6C0 167.9 8.2 176 18.2 176h41.2c10.1 0 18.3-8.2 18.3-18.2V18.2C77.7 8.2 69.5 0 59.4 0"/><path d="M57.7 155.1c-2.2-2-.7-2.8-.8-3.6-1.5-6.1-6.3-9.8-3.8-11.8-.6-2-1.9-4.5-1.8-4.5-7.5-4.3-14-11.4-15.1-12.4-1.3-1.4-3.6-2.9-4-4.1-1.8-1.7-10.7-14.3-12.8-18.9l-3.6-.5C14.2 92.6 8.7 87 8.5 80.2c-.1-2.5 1.2-8 1.6-9.1.4-1.1 2.5-2.9 2.5-2.9v-1.8c-7.9.2-5.6-.6-7-3.6-1-2.1-.3-2.6.1-4.1 1.1-4.3 4.6-11 6-14.1.4-1.5 2-5.2 2-5.2 5.9-12 8.1-11.1 15-11.7l.3-.5c7-.3 5.8-.8 6.8-7.6-1 .4-1.3-2.1-1.3-2.1-.6-3.8 1.1-3.1 1.8-3.2.2-6.3.8-8.3 5.4-10H18.2c-7.7 0-13.9 6.2-13.9 13.9v139.6c0 7.7 6.2 13.9 13.9 13.9h41.2c-4.7-2.5-1.9-7.3-1.7-16.6" fill="#1a428a"/><path d="M49.2 32.3v.6c1.3.7 1.9 1.3 3.2 2.1 3.4 2.1 7.5 5.9 7 18.8.9 2.8 1.4 8.4 2.2 10.2 1.8 3.5 2.9 5.7 3.4 9 0 0 .5 5.1 1.2 5.5 3.5.8 2.5 1.1 3 1.7.5.7 2.5.7 2.5 2.5.7.9 1.2 1.9 1.6 2.9V18.2c0-7.7-6.3-13.9-13.9-13.9H46.1c2.1.8 3.3 1.7 4.1 3.1 1.7.1 3.8 4 .6 9.7 1.4.9.3 2.3-.7 4-.3.5-.6 1.5-1.6 1.4-1.2 2.5-2.7 5-3.8 5.2-.3.4-.6 1.5-.1 2 1.7.7 3.6 1.6 4.6 2.6m24.2 62.5c-1.8 4.6-6.3 7.8-11.6 7.8-6.9 0-12.4-5.6-12.4-12.4 0-5.9 4-10.8 9.5-12.1-1.4-3.6-4.5-9.4-5.4-11.3-.9-1.9-2.9-13.7-3.3-16-.1-.5-5.4 3.1-5.4 3.3-.3.3-3.9 9.8-4.1 10.3-.1.3-.1 1.6-.1 1.6s1.8.2 2.8 3.3c1 3.1 4.1 14.5 4.1 14.5s-.8.9-.9.8c3.9 13.1 2.6 18.8 4.3 22.6 2.2 5.4 2.8 4.7 4.7 9.3 1.4 3.3 2.9 16.4 3.4 17 2.1 2.7 3.3 4.8 3.3 6.3s-1.8 6-1.1 8.7c.4 1.5.6 5 1.3 5.7 0 0 .7 1.3.3 1.9-.1.2-.3.5-.2.7 1.2 4.1 4.9 11.2-1.2 14.8h.1c6.7-1 11.7-6.7 11.7-13.8v-63z" fill="#ce0e2d"/><path class="st1" d="M16 163h-2.9v-25.3h4.7l3.7 20.7c-.3-5-.7-10.9-.7-16v-4.7h2.9V163h-4.3l-3.7-20.2c.2 4.7.3 8.4.3 12.3v7.9zm25.9-22.5h-.2c-.2 3-.6 8.4-.8 10.1l-.4 4.4h2.6l-.4-4.4c0-1.7-.5-7-.8-10.1m1.5 17.4h-3L40 163h-3.4l3-25.3h4.8l2.9 25.3h-3.5l-.4-5.1zm-14-17v8.4h1.3c1.2 0 1.5-.4 1.5-1.8v-4.8c0-1.2-.4-1.7-1.5-1.7h-1.3zm0 11.1v7.8h1.3c1.2 0 1.5-.6 1.5-1.8v-4.3c0-1.2-.4-1.7-1.5-1.7h-1.3zM26 163v-25.3h4.9c2.8 0 4.6 1.5 4.6 5.1v3.8c0 2.3-.7 3.5-1.7 4 1 .7 1.7 1.8 1.7 3.7v3.7c0 3.5-1.9 5-4.6 5H26z"/></svg>